<?xml version="1.0" standalone="no"?>
<!DOCTYPE svg PUBLIC "-//W3C//DTD SVG 20010904//EN"
 "http://www.w3.org/TR/2001/REC-SVG-20010904/DTD/svg10.dtd">
<svg version="1.0" xmlns="http://www.w3.org/2000/svg"
 width="260.000000pt" height="260.000000pt" viewBox="0 0 260.000000 260.000000"
 preserveAspectRatio="xMidYMid meet">
<metadata>
Created by potrace 1.11, written by Peter Selinger 2001-2013
</metadata>
<g transform="translate(0.000000,260.000000) scale(0.100000,-0.100000)"
fill="#000000" stroke="none">
<path d="M0 1300 l0 -1300 1300 0 1300 0 0 1300 0 1300 -1300 0 -1300 0 0
-1300z m1345 670 c187 -58 340 -183 420 -344 57 -112 66 -106 -153 -106 l-187
0 -35 48 c-43 57 -123 107 -197 122 -159 33 -333 -63 -395 -218 -32 -82 -32
-242 1 -325 33 -84 87 -147 162 -187 62 -34 67 -35 174 -35 100 0 115 2 161
27 71 38 144 123 144 169 0 5 -81 9 -195 9 l-195 0 0 135 0 135 395 0 395 0 6
-25 c3 -14 1 -69 -5 -123 -42 -351 -277 -592 -621 -634 -153 -19 -326 16 -458
94 -32 18 -93 69 -138 114 -90 89 -149 192 -181 314 -23 89 -23 263 1 350 69
252 273 441 536 496 95 20 276 12 365 -16z m732 -1037 c52 -24 87 -84 87 -147
0 -104 -77 -172 -185 -164 -39 3 -69 11 -87 25 -101 74 -97 210 7 280 42 28
126 31 178 6z"/>
</g>
</svg>
